<?xml version="1.0" encoding="UTF-8"?>
<svg id="Layer_1" data-name="Layer 1" xmlns="http://www.w3.org/2000/svg" viewBox="0 0 700 700">
 <path d="M260.94,72.65c3.73,100.1,71.86,183.57,164.24,210.29-17.91,59.81-43.38,117.39-76.17,171.2l-54.22,88.95-54.21-88.95c-70.05-114.92-107.1-246.91-107.1-381.49H42.84v16.11c0,124.4,31.66,246.76,92,355.54l102.62,185.01h114.64s102.62-185.01,102.62-185.01c60.34-108.79,92-231.14,92-355.54v-16.11h-285.79Z"/>
 <g>
 <g>
 <path d="M604.58,99.62c2.25,2.17,3.5,4.64,3.75,7.41h-4.3c-.48-2.1-1.43-3.76-2.86-4.99-1.43-1.23-3.44-1.84-6.02-1.84-3.15,0-5.7,1.13-7.63,3.39-1.94,2.25-2.91,5.71-2.91,10.37,0,3.82.88,6.91,2.62,9.29,1.75,2.38,4.36,3.56,7.83,3.56,3.2,0,5.63-1.25,7.3-3.75.88-1.32,1.54-3.05,1.98-5.19h4.3c-.38,3.43-1.64,6.31-3.77,8.63-2.56,2.79-6.01,4.19-10.35,4.19-3.74,0-6.88-1.15-9.42-3.44-3.34-3.03-5.02-7.72-5.02-14.05,0-4.81,1.26-8.75,3.77-11.83,2.72-3.34,6.46-5.02,11.24-5.02,4.08,0,7.24,1.09,9.49,3.26Z"/>
 <path d="M631.01,108.44c2.1,2.04,3.15,5.04,3.15,8.99s-.92,6.99-2.78,9.48c-1.85,2.5-4.72,3.74-8.61,3.74-3.25,0-5.82-1.1-7.73-3.31-1.91-2.21-2.86-5.17-2.86-8.9,0-3.99,1.01-7.16,3.02-9.53,2.01-2.36,4.71-3.54,8.11-3.54,3.04,0,5.61,1.02,7.71,3.06ZM628.53,124.23c.97-2,1.46-4.23,1.46-6.68,0-2.21-.35-4.02-1.05-5.4-1.11-2.19-3.03-3.28-5.74-3.28-2.41,0-4.17.93-5.26,2.79-1.1,1.86-1.64,4.11-1.64,6.73s.55,4.63,1.64,6.31c1.1,1.68,2.83,2.52,5.22,2.52,2.62,0,4.41-1,5.38-3Z"/>
 <path d="M640.02,124.99h4.63v4.83h-4.63v-4.83Z"/>
 </g>
 <path d="M612.36,160.28c-24.7,0-44.8-20.1-44.8-44.8s20.1-44.79,44.8-44.79,44.79,20.1,44.79,44.79-20.1,44.8-44.79,44.8ZM612.36,74.47c-22.61,0-41.01,18.4-41.01,41.01s18.4,41.01,41.01,41.01,41.01-18.4,41.01-41.01-18.4-41.01-41.01-41.01Z"/>
 </g>
</svg>
