<?xml version="1.0" encoding="UTF-8"?>
<svg id="Layer_1" data-name="Layer 1" xmlns="http://www.w3.org/2000/svg" viewBox="0 0 700 700">
 <defs>
 <style>
 .cls-1 {
 fill: #fff;
 }

 .cls-2 {
 fill: #010000;
 }

 .cls-3 {
 fill: #3b4d9a;
 }

 .cls-4 {
 fill: #fbce40;
 }
 </style>
 </defs>
 <rect class="cls-3" x="27.87" y="158.07" width="533.76" height="490.42"/>
 <g>
 <path class="cls-1" d="M389.43,441.19h20.03v6.57h-28.31v-4.01c0-16.29,21.67-15.5,21.67-26.26,0-3.95-2.74-6.63-6.94-6.63-4.44,0-7.91,2.98-8.04,8.45h-7.67c.67-9.6,7.25-15.02,15.83-15.02s14.25,5.23,14.25,12.95c0,14.04-19.06,14.04-20.82,23.95Z"/>
 <path class="cls-1" d="M415.13,426.36c0-13.25,6.58-22.07,16.93-22.07s16.86,8.63,16.86,22.07-6.58,22.31-16.86,22.31-16.93-8.75-16.93-22.31ZM441.55,426.36c0-9.36-3.71-15.38-9.5-15.38s-9.56,6.02-9.56,15.38,3.71,15.56,9.56,15.56,9.5-6.08,9.5-15.56Z"/>
 <path class="cls-1" d="M462.19,441.19h20.03v6.57h-28.31v-4.01c0-16.29,21.67-15.5,21.67-26.26,0-3.95-2.74-6.63-6.94-6.63-4.44,0-7.91,2.98-8.04,8.45h-7.67c.67-9.6,7.25-15.02,15.83-15.02s14.25,5.23,14.25,12.95c0,14.04-19.06,14.04-20.82,23.95Z"/>
 <path class="cls-1" d="M487.89,426.36c0-13.25,6.58-22.07,16.93-22.07s16.86,8.63,16.86,22.07-6.58,22.31-16.86,22.31-16.93-8.75-16.93-22.31ZM514.31,426.36c0-9.36-3.71-15.38-9.5-15.38s-9.56,6.02-9.56,15.38,3.71,15.56,9.56,15.56,9.5-6.08,9.5-15.56Z"/>
 <path class="cls-1" d="M393.51,514.13h20.03v6.57h-28.31v-4.01c0-16.29,21.67-15.5,21.67-26.26,0-3.95-2.74-6.63-6.94-6.63-4.44,0-7.91,2.98-8.04,8.45h-7.67c.67-9.6,7.25-15.02,15.83-15.02s14.25,5.23,14.25,12.95c0,14.04-19.06,14.04-20.82,23.95Z"/>
 <path class="cls-1" d="M419.21,499.3c0-13.25,6.58-22.07,16.93-22.07s16.86,8.63,16.86,22.07-6.58,22.31-16.86,22.31-16.93-8.75-16.93-22.31ZM445.63,499.3c0-9.36-3.71-15.38-9.5-15.38s-9.56,6.02-9.56,15.38,3.71,15.56,9.56,15.56,9.5-6.08,9.5-15.56Z"/>
 <path class="cls-1" d="M466.27,514.13h20.03v6.57h-28.31v-4.01c0-16.29,21.67-15.5,21.67-26.26,0-3.95-2.74-6.63-6.94-6.63-4.44,0-7.91,2.98-8.04,8.45h-7.67c.67-9.6,7.25-15.02,15.83-15.02s14.25,5.23,14.25,12.95c0,14.04-19.06,14.04-20.82,23.95Z"/>
 <path class="cls-1" d="M500.98,514.13h20.03v6.57h-28.31v-4.01c0-16.29,21.67-15.5,21.67-26.26,0-3.95-2.74-6.63-6.94-6.63-4.44,0-7.91,2.98-8.04,8.45h-7.67c.67-9.6,7.25-15.02,15.83-15.02s14.25,5.23,14.25,12.95c0,14.04-19.06,14.04-20.82,23.95Z"/>
 <path class="cls-1" d="M391.26,587.08h20.03v6.57h-28.31v-4.01c0-16.29,21.67-15.5,21.67-26.26,0-3.95-2.74-6.63-6.94-6.63-4.44,0-7.91,2.98-8.04,8.45h-7.67c.67-9.6,7.25-15.02,15.83-15.02s14.25,5.23,14.25,12.95c0,14.04-19.06,14.04-20.82,23.95Z"/>
 <path class="cls-1" d="M416.95,572.25c0-13.25,6.58-22.07,16.93-22.07s16.86,8.63,16.86,22.07-6.58,22.31-16.86,22.31-16.93-8.75-16.93-22.31ZM443.38,572.25c0-9.36-3.71-15.38-9.5-15.38s-9.56,6.02-9.56,15.38,3.71,15.56,9.56,15.56,9.5-6.08,9.5-15.56Z"/>
 <path class="cls-1" d="M464.02,587.08h20.03v6.57h-28.31v-4.01c0-16.29,21.67-15.5,21.67-26.26,0-3.95-2.74-6.63-6.94-6.63-4.44,0-7.91,2.98-8.04,8.45h-7.67c.67-9.6,7.25-15.02,15.83-15.02s14.25,5.23,14.25,12.95c0,14.04-19.06,14.04-20.82,23.95Z"/>
 <path class="cls-1" d="M489.04,580.09h7.49c.43,4.92,4.26,7.9,9.92,7.9,5.24,0,8.52-2.61,8.52-6.63s-3.23-6.38-8.58-6.38h-6.64v-6.02h6.64c4.32,0,6.94-2.74,6.94-6.08,0-3.53-2.86-6.14-7.12-6.14s-7.61,2.74-8.16,6.93h-7.55c.85-8.15,7.18-13.5,15.95-13.5,8.28,0,14.19,4.74,14.19,11.37,0,5.05-3.47,8.94-8.58,10.03,6.27,1.16,10.05,5.17,10.05,10.82,0,7.23-6.21,12.22-15.65,12.22-10.05,0-16.93-5.53-17.41-14.53Z"/>
 </g>
 <g>
 <path class="cls-1" d="M151.6,230.68c-36.72,3.93-72.5,40.09-70.31,75.51,2.27,36.71.51,73.66.51,110.51s.31,75.86-.11,113.79c-.3,26.55,11.6,46.9,33.17,60.86,32.06,20.75,67.82,19.76,103.64,12.33,33.5-6.95,54.96-29.06,63.3-60.07,7.58-28.16-2.38-54.06-25.19-73.89-16.75-14.56-34.11-28.47-50.44-43.47-15.45-14.19-15.9-21.87-4.55-39.09,8.52-12.94,17.66-25.5,25.82-38.65,15.11-24.38,21.45-50.15,8.42-77.39-13.16-27.53-48.55-44.26-84.28-40.44ZM222.83,477.6c19.74,12.84,28.8,29.66,23.64,51.66-4.95,21.11-20.03,35.6-40.9,42.2-50.49,15.97-103.32-18.18-94.22-77.04,3.15-20.42,8.83-40.45,13.13-60.71,1.88-8.85,3.16-17.83,4.28-24.26-2.91-25.65-6.47-48.48-7.73-71.44-.67-12.27-.2-26.15,5.16-36.61,3.37-6.57,16.81-11.26,25.66-11.15,10.44.13,18.41,18.27,15.01,30.16-6,20.94-11.77,42.02-19.37,62.41-8.63,23.13,3.82,38.42,18.91,51.68,17.73,15.59,36.62,30.21,56.44,43.1ZM201.83,328.64c-6.98,7.61-14.81,14.46-22.02,21.88-7.06,7.26-13.82,14.79-21.71,23.27,4.56-14.74,9.21-28.07,12.77-41.69,6.86-26.24,3.36-39.28-11.53-46.59-16.52-8.1-28.48-3.25-45.72,18.53-1.6-25.57,12.74-41.41,30.89-49.05,18.54-7.81,46.25-1.49,60.13,13.67,16.03,17.51,14.68,40.93-2.81,59.98Z"/>
 <path class="cls-1" d="M135.31,461.47c-2.55,11.99-3.17,24.37-4.61,36.59-3.29,18.44,4.63,33.17,19.68,41.34,11.64,6.32,26.54,9.35,39.9,9.12,8.74-.15,21.18-6.85,24.87-14.11,3.51-6.91,1.11-21.45-4.47-27.24-18.13-18.81-38.7-35.4-58.78-52.32-8.62-7.26-14.8-1.84-16.6,6.63Z"/>
 </g>
 <rect class="cls-4" x="354.01" y="51.52" width="318.12" height="318.12"/>
 <g>
 <g>
 <path class="cls-2" d="M383.61,124.96h22.07c8.46,0,13.98,5.75,13.98,13.65,0,8.38-5.88,13.89-13.98,13.89h-13.8v14.37h-8.28v-41.91ZM405.02,145.08c4.14,0,6.24-3.11,6.24-6.47s-2.28-6.29-6.24-6.29h-13.14v12.75h13.14Z"/>
 <path class="cls-2" d="M424.93,135.14h6.6l1.02,6.35c2.04-4.43,5.76-6.77,10.98-6.77h1.32v7.9h-1.32c-6.54,0-10.38,3.35-10.38,9.1v15.15h-8.22v-31.73Z"/>
 <path class="cls-2" d="M446.59,151.12c0-10.3,6.84-17,16.08-17s15.36,6.41,15.54,16.77v1.92h-23.57c.6,4.91,3.9,8.26,8.7,8.26,3.36,0,5.82-1.56,6.84-4.31h7.92c-1.74,7.01-7.2,11.08-14.82,11.08-9.9,0-16.67-6.89-16.67-16.71ZM459.96,118.13h5.16l11.1,9.94-4.8,4.61-8.94-8.38-9,8.38-4.8-4.49,11.28-10.06ZM469.8,147.35c-.9-4.07-3.42-6.41-7.14-6.41s-6.6,2.4-7.68,6.41h14.82Z"/>
 <path class="cls-2" d="M483.11,135.14h6.6l.6,4.25c1.86-2.99,5.64-5.27,10.44-5.27,4.5,0,7.86,2.1,9.6,5.75,1.74-3.17,5.64-5.75,10.74-5.75,6.6,0,10.86,4.67,10.86,11.74v21.02h-8.16v-20.66c0-3.11-1.92-5.15-4.98-5.15-4.32,0-7.2,2.81-7.2,6.59v19.22h-8.16v-20.66c0-3.11-1.92-5.15-4.98-5.15-4.32,0-7.14,2.81-7.14,6.59v19.22h-8.22v-31.73Z"/>
 <path class="cls-2" d="M542.25,121.42c2.82,0,4.98,2.1,4.98,4.91s-2.16,5.09-4.98,5.09-5.04-2.22-5.04-5.09,2.22-4.91,5.04-4.91ZM538.11,135.14h8.22v31.73h-8.22v-31.73Z"/>
 <path class="cls-2" d="M551.31,150.76c0-10.3,6.96-16.65,16.62-16.65,10.32,0,16.62,7.12,16.62,16.65,0,10.54-6.9,17.06-16.62,17.06-10.38,0-16.62-7.19-16.62-17.06ZM567.92,160.94c5.22,0,8.4-4.19,8.4-10.18s-3.3-9.82-8.4-9.82-8.4,3.89-8.4,9.82c0,6.35,3.42,10.18,8.4,10.18Z"/>
 </g>
 <g>
 <path class="cls-2" d="M383.61,183.93h20.27c7.8,0,13.2,4.37,13.2,10.66,0,4.91-3.54,8.68-8.82,9.76,5.94.78,9.78,4.73,9.78,10.12,0,6.77-5.64,11.38-13.8,11.38h-20.63v-41.91ZM403.7,201c3.12,0,5.28-2.04,5.28-4.97s-1.98-4.73-4.92-4.73h-12.18v9.7h11.82ZM404.48,218.48c3.24,0,5.1-2.4,5.1-5.21s-2.04-5.21-5.58-5.21h-12.12v10.42h12.6Z"/>
 <path class="cls-2" d="M423.37,194.11h6.6l1.02,6.35c2.04-4.43,5.76-6.77,10.98-6.77h1.32v7.9h-1.32c-6.54,0-10.38,3.35-10.38,9.1v15.15h-8.22v-31.73Z"/>
 <path class="cls-2" d="M445.33,217.16c.12-7.48,7.62-9.16,13.8-9.88,4.68-.6,7.98-.9,7.98-3.35,0-2.63-1.98-4.31-5.76-4.31s-6.6,2.1-7.02,5.21h-8.28c.72-6.95,6.96-11.74,15.42-11.74,8.94,0,13.62,4.67,13.62,11.38v13.83c0,.9.42,1.38,1.5,1.38h1.68v6.17h-3.66c-3.06,0-5.22-1.14-6-3.29-.18-.36-.3-.72-.42-1.14-1.86,3.23-5.28,5.15-10.62,5.15-7.38,0-12.3-3.35-12.24-9.4ZM459.36,220.4c4.26,0,7.74-2.22,7.74-5.99v-4.61c-1.08,1.86-3.9,2.28-7.02,2.69-3.78.54-6.54,1.08-6.54,4.07,0,2.46,1.92,3.83,5.82,3.83Z"/>
 <path class="cls-2" d="M480.83,215.67h7.8c.24,3.11,2.7,4.61,6.24,4.61,3.12,0,4.86-1.2,4.86-3.29s-1.8-2.52-4.32-3.35l-4.02-1.32c-5.58-1.74-10.08-3.77-10.08-9.64s4.44-9.58,12.36-9.58,12.66,3.95,13.5,11.2h-7.56c-.36-3.17-2.58-4.67-5.94-4.67-2.7,0-4.32,1.14-4.32,2.93,0,2.1,2.4,2.69,4.5,3.41l3.66,1.26c6.54,2.16,10.38,4.07,10.38,9.88s-4.62,9.7-12.42,9.7c-9.3,0-14.22-4.01-14.64-11.14Z"/>
 <path class="cls-2" d="M516.64,180.4c2.82,0,4.98,2.1,4.98,4.91s-2.16,5.09-4.98,5.09-5.04-2.22-5.04-5.09,2.22-4.91,5.04-4.91ZM512.5,194.11h8.22v31.73h-8.22v-31.73Z"/>
 <path class="cls-2" d="M527.44,180.94h8.16v44.91h-8.16v-44.91Z"/>
 <path class="cls-2" d="M540.69,210.1c0-10.3,6.84-17,16.08-17s15.36,6.41,15.54,16.77v1.92h-23.57c.6,4.91,3.9,8.26,8.7,8.26,3.36,0,5.82-1.56,6.84-4.31h7.92c-1.74,7.01-7.2,11.08-14.82,11.08-9.9,0-16.67-6.89-16.67-16.71ZM563.91,206.33c-.9-4.07-3.42-6.41-7.14-6.41s-6.6,2.4-7.68,6.41h14.82Z"/>
 <path class="cls-2" d="M581.36,180.4c2.82,0,4.98,2.1,4.98,4.91s-2.16,5.09-4.98,5.09-5.04-2.22-5.04-5.09,2.22-4.91,5.04-4.91ZM577.22,194.11h8.22v31.73h-8.22v-31.73Z"/>
 <path class="cls-2" d="M592.03,194.11h6.6l1.02,6.35c2.04-4.43,5.76-6.77,10.98-6.77h1.32v7.9h-1.32c-6.54,0-10.38,3.35-10.38,9.1v15.15h-8.22v-31.73Z"/>
 <path class="cls-2" d="M613.69,209.74c0-10.3,6.96-16.65,16.62-16.65,10.32,0,16.62,7.12,16.62,16.65,0,10.54-6.9,17.06-16.62,17.06-10.38,0-16.62-7.19-16.62-17.06ZM630.3,219.92c5.22,0,8.4-4.19,8.4-10.18s-3.3-9.82-8.4-9.82-8.4,3.89-8.4,9.82c0,6.35,3.42,10.18,8.4,10.18Z"/>
 </g>
 <g>
 <path class="cls-2" d="M381.87,274.17c0-10.84,6.9-20.36,17.57-20.36,5.1,0,8.7,2.52,10.08,6.89l3.9-19.34h4.98l-9.12,44.91h-3.84l.6-5.81c-2.64,4.13-6.54,6.47-11.76,6.47-7.62,0-12.42-4.67-12.42-12.75ZM407.6,266.99c0-5.51-2.7-8.86-7.92-8.86-7.8,0-12.78,7.42-12.78,15.21,0,5.87,2.88,9.28,8.34,9.28,8.04,0,12.36-7.96,12.36-15.63Z"/>
 <path class="cls-2" d="M416.24,273.93c0-10.42,6.66-20.12,17.93-20.12,7.98,0,12.9,5.57,11.1,16.17l-.24,1.26h-23.75c-1.02,6.47,1.62,11.38,8.1,11.38,4.26,0,7.74-1.92,9.78-6.35h4.74c-2.64,7.01-8.16,10.66-15.12,10.66-7.68,0-12.54-4.79-12.54-12.99ZM440.83,267.11c.3-5.81-2.16-8.98-7.26-8.98-5.46,0-9.48,3.95-11.34,8.98h18.59Z"/>
 <path class="cls-2" d="M464.46,244.35h15.36c12.66,0,21.53,8.5,21.53,20.72s-8.88,21.2-21.53,21.2h-15.36v-41.91ZM480.36,278.84c7.32,0,12.42-5.63,12.42-13.77,0-7.72-5.1-13.35-12.42-13.35h-7.62v27.12h7.62Z"/>
 <path class="cls-2" d="M505.07,270.52c0-10.3,6.84-17,16.08-17s15.36,6.41,15.54,16.77v1.92h-23.57c.6,4.91,3.9,8.26,8.7,8.26,3.36,0,5.82-1.56,6.84-4.31h7.92c-1.74,7.01-7.2,11.08-14.82,11.08-9.9,0-16.67-6.89-16.67-16.71ZM528.28,266.75c-.9-4.07-3.42-6.41-7.14-6.41s-6.6,2.4-7.68,6.41h14.82Z"/>
 <path class="cls-2" d="M540.03,276.09h7.8c.24,3.11,2.7,4.61,6.24,4.61,3.12,0,4.86-1.2,4.86-3.29s-1.8-2.52-4.32-3.35l-4.02-1.32c-5.58-1.74-10.08-3.77-10.08-9.64s4.44-9.58,12.36-9.58,12.66,3.95,13.5,11.2h-7.56c-.36-3.17-2.58-4.67-5.94-4.67-2.7,0-4.32,1.14-4.32,2.93,0,2.1,2.4,2.69,4.5,3.41l3.66,1.26c6.54,2.16,10.38,4.07,10.38,9.88s-4.62,9.7-12.42,9.7c-9.3,0-14.22-4.01-14.64-11.14Z"/>
 <path class="cls-2" d="M575.84,240.82c2.82,0,4.98,2.1,4.98,4.91s-2.16,5.09-4.98,5.09-5.04-2.22-5.04-5.09,2.22-4.91,5.04-4.91ZM571.7,254.53h8.22v31.73h-8.22v-31.73Z"/>
 <path class="cls-2" d="M586.1,288h8.1c.06,2.63,2.88,4.73,7.2,4.73,5.16,0,7.86-3.05,7.86-7.42v-4.19c-1.92,2.93-5.28,4.67-9.66,4.67-8.64,0-14.7-6.59-14.7-16.11s6.12-16.17,14.58-16.17c4.92,0,8.88,2.22,10.74,5.69l.66-4.67h6.48v30.72c0,8.5-6.24,14.01-15.9,14.01-9.12,0-15.36-4.37-15.36-11.26ZM601.21,279.08c4.74,0,8.04-3.83,8.04-9.46s-3.3-9.34-8.04-9.34-7.98,3.83-7.98,9.4,3.3,9.4,7.98,9.4Z"/>
 <path class="cls-2" d="M623.94,254.53h6.6l.72,4.55c1.8-3.23,5.76-5.57,10.5-5.57,6.78,0,11.22,4.61,11.22,11.8v20.96h-8.22v-20.6c0-3.05-2.04-5.09-5.58-5.09-4.08,0-7.02,2.69-7.02,6.53v19.16h-8.22v-31.73Z"/>
 </g>
 </g>
</svg>
